<?xml version="1.0" encoding="UTF-8"?>
<svg id="_图层_1" data-name="图层_1" xmlns="http://www.w3.org/2000/svg" viewBox="0 0 1997.77 307.59">
  <defs>
    <style>
      .cls-1 {
        fill: #51aee1;
      }

      .cls-2 {
        fill: #e7ded5;
      }

      .cls-3 {
        fill: #f6b34f;
      }

      .cls-4 {
        fill: #231815;
      }

      .cls-5 {
        fill: #00a0e9;
      }

      .cls-6 {
        fill: #1f2c5c;
      }

      .cls-7 {
        fill: #5b82c2;
      }

      .cls-8 {
        fill: #f39800;
      }
    </style>
  </defs>
  <polygon class="cls-5" points="156.37 178.98 222.8 178.98 189.59 236.52 156.37 178.98"/>
  <polygon class="cls-4" points="222.8 157.61 156.37 157.61 189.59 0 222.8 157.61"/>
  <rect class="cls-4" x="78.19" y="193.58" width="66.43" height="99.4" transform="translate(266.39 25.16) rotate(60)"/>
  <rect class="cls-4" x="234.53" y="193.57" width="66.43" height="99.4" transform="translate(612.29 133.04) rotate(120)"/>
  <polygon class="cls-8" points="66.43 307.59 0 307.59 33.21 250.05 66.43 307.59"/>
  <polygon class="cls-8" points="379.14 307.59 312.71 307.59 345.93 250.05 379.14 307.59"/>
  <polygon class="cls-6" points="85.97 195.71 137.83 164.79 156.37 75.28 85.97 195.71"/>
  <polygon class="cls-6" points="293.2 195.71 241.34 164.79 222.8 75.28 293.2 195.71"/>
  <polygon class="cls-6" points="242.28 283.8 189.65 254.18 134.74 283.8 242.28 283.8"/>
  <g>
    <path class="cls-4" d="M393.84,51.79h15.74v111.92l31.16-19.55v18.44l-46.9,29.25V51.79ZM445.51,65.94l7.31,56.92h-14.31l-10.17-56.92h17.17ZM471.9,109.98v-58.19h15.74v58.19l24.32,83.78h-13.35l-18.76-54.85-18.92,54.85h-13.35l24.32-83.78Z"/>
    <path class="cls-4" d="M585.73,92.97h-46.42l-2.86-15.58h51.83v-25.6h15.74v25.6h51.67l-2.7,15.58h-46.42l46.42,100.79h-14.47l-42.45-86.96-42.45,86.96h-14.31l46.42-100.79ZM601.15,149.72l11.76,38.31h-13.51l-14.63-38.31h16.38Z"/>
    <path class="cls-4" d="M706.55,99.33v72.02l10.02-4.61v14.31l-24.17,12.72v-80.13h-10.02l-2.86-14.31h27.03ZM703.06,57.51l10.65,34.02h-12.08l-14.94-34.02h16.38ZM730.72,64.67v-12.88h14.15v12.88h25.6v-12.88h14.15v12.88h14.15l-2.7,14.15h-11.45v12.72h-14.15v-12.72h-25.6v12.72h-14.15v-12.72h-11.45l-2.7-14.15h14.15ZM732.15,179.61v-21.78l-2.23,4.77h-12.4l17.49-42.61h-14.31l-2.86-14.31h22.89l5.25-12.72h15.42l-5.88,12.72h41.81l-2.7,14.31h-45.47l-6.04,13.51h50.08v46.1l-2.86,14.15h-55.33l-2.86-14.15ZM778.89,179.61v-31.8h-32.59v31.8h32.59Z"/>
    <path class="cls-4" d="M830.56,146.86v-70.91h-3.66l-2.86-12.72h6.52v-11.45h12.72v11.45h22.73v-11.45h12.72v11.45h6.36l-2.86,12.72h-3.5v70.91h7.79l-2.86,12.88h-58.19l-2.86-12.88h7.95ZM832.78,164.03h13.2l-9.22,29.73h-10.33l6.36-29.73ZM866.01,91.06v-15.1h-22.73v15.1h22.73ZM866.01,118.88v-14.94h-22.73v14.94h22.73ZM866.01,146.86v-15.1h-22.73v15.1h22.73ZM875.07,164.03l6.36,29.73h-10.33l-9.22-29.73h13.2ZM891.45,112.2v-54.69h24.17l23.53-5.72v11.76l-21.62,8.11h-11.76v27.03h36.09l-2.7,13.51h-4.29v81.56h-12.88v-81.56h-16.22v.64l-9.22,80.92h-11.45l6.36-81.56Z"/>
  </g>
  <g>
    <path class="cls-4" d="M408.53,236.87h11.42l-1.75,6.52h-20.55l8.97-33.49h20.08l-1.75,6.52h-10.95l-1.83,6.83h9.44l-1.75,6.52h-9.44l-1.9,7.09Z"/>
    <path class="cls-4" d="M460.66,209.9l-1.75,6.52h-6.47l-7.23,26.97h-9.13l7.23-26.97h-6.42l1.75-6.52h22.01Z"/>
    <path class="cls-4" d="M488.98,209.9h8.97l-8.97,33.49h-8.97l3.55-13.25h-6.57l-3.55,13.25h-8.97l8.97-33.49h8.97l-3.68,13.72h6.57l3.68-13.72Z"/>
    <path class="cls-4" d="M514.46,236.87h11.42l-1.75,6.52h-20.55l8.97-33.49h20.08l-1.75,6.52h-10.95l-1.83,6.83h9.44l-1.75,6.52h-9.44l-1.9,7.09Z"/>
    <path class="cls-4" d="M549.75,231.5l-3.19,11.89h-9.13l8.97-33.49h15.49c5.11,0,7.09,2.16,5.93,6.47l-2.32,8.66c-.88,3.3-2.93,5.34-6.12,6.1l2.87,12.26h-9.81l-2.13-11.89h-.57ZM557.39,216.42h-3.6l-2.38,8.87h3.6c.87,0,1.41-.38,1.61-1.15l1.76-6.57c.21-.77-.13-1.15-1-1.15Z"/>
    <path class="cls-4" d="M598.93,209.9h8.35l-8.97,33.49h-7.82l-2.75-17.58-4.71,17.58h-8.35l8.97-33.49h7.82l2.67,17.89,4.79-17.89Z"/>
    <path class="cls-4" d="M629.39,209.9h7.72c5.11,0,7.09,2.16,5.94,6.47l-5.51,20.55c-1.16,4.31-4.29,6.47-9.4,6.47h-7.72c-5.11,0-7.09-2.16-5.93-6.47l5.51-20.55c1.16-4.31,4.29-6.47,9.4-6.47ZM628.74,235.72l4.86-18.15c.21-.77-.13-1.15-1-1.15h-2.19c-.87,0-1.41.38-1.61,1.15l-4.86,18.15c-.21.77.13,1.15,1,1.15h2.19c.87,0,1.41-.38,1.61-1.15Z"/>
    <path class="cls-4" d="M665.14,235.72l1.27-4.75c.21-.77-.13-1.15-1-1.15h-5.01c-2.57,0-4.24-.56-5-1.7-.76-1.13-.85-2.75-.28-4.88l1.84-6.88c1.16-4.31,4.27-6.47,9.35-6.47h7.15c5.08,0,7.04,2.16,5.88,6.47l-1.08,4.02h-9.13l.75-2.82c.2-.77-.13-1.15-1-1.15h-1.51c-.87,0-1.41.38-1.61,1.15l-1.33,4.96c-.21.76.13,1.15,1,1.15h4.9c2.57,0,4.26.54,5.07,1.62.81,1.08.93,2.66.37,4.75l-1.84,6.88c-1.16,4.31-4.27,6.47-9.35,6.47h-7.09c-5.11,0-7.09-2.16-5.93-6.47l1.08-4.02h9.13l-.75,2.82c-.21.77.13,1.15,1,1.15h1.51c.87,0,1.41-.38,1.61-1.15Z"/>
  </g>
  <polygon class="cls-1" points="1200.37 178.98 1266.8 178.98 1233.59 236.52 1200.37 178.98"/>
  <polygon class="cls-2" points="1266.8 157.61 1200.37 157.61 1233.59 0 1266.8 157.61"/>
  <rect class="cls-2" x="1122.19" y="193.58" width="66.43" height="99.4" transform="translate(788.39 -878.97) rotate(60)"/>
  <rect class="cls-2" x="1278.53" y="193.57" width="66.43" height="99.4" transform="translate(2178.29 -771.09) rotate(120)"/>
  <polygon class="cls-3" points="1110.43 307.59 1044 307.59 1077.21 250.05 1110.43 307.59"/>
  <polygon class="cls-3" points="1423.14 307.59 1356.71 307.59 1389.93 250.05 1423.14 307.59"/>
  <polygon class="cls-7" points="1129.97 195.71 1181.83 164.79 1200.37 75.28 1129.97 195.71"/>
  <polygon class="cls-7" points="1337.2 195.71 1285.34 164.79 1266.8 75.28 1337.2 195.71"/>
  <polygon class="cls-7" points="1286.28 283.8 1233.65 254.18 1178.74 283.8 1286.28 283.8"/>
  <g>
    <path class="cls-2" d="M1437.84,51.79h15.74v111.92l31.16-19.55v18.44l-46.9,29.25V51.79ZM1489.51,65.94l7.31,56.92h-14.31l-10.17-56.92h17.17ZM1515.9,109.98v-58.19h15.74v58.19l24.32,83.78h-13.35l-18.76-54.85-18.92,54.85h-13.35l24.32-83.78Z"/>
    <path class="cls-2" d="M1629.73,92.97h-46.42l-2.86-15.58h51.83v-25.6h15.74v25.6h51.67l-2.7,15.58h-46.42l46.42,100.79h-14.47l-42.45-86.96-42.45,86.96h-14.31l46.42-100.79ZM1645.15,149.72l11.76,38.31h-13.51l-14.63-38.31h16.38Z"/>
    <path class="cls-2" d="M1750.55,99.33v72.02l10.02-4.61v14.31l-24.17,12.72v-80.13h-10.02l-2.86-14.31h27.03ZM1747.06,57.51l10.65,34.02h-12.08l-14.94-34.02h16.38ZM1774.72,64.67v-12.88h14.15v12.88h25.6v-12.88h14.15v12.88h14.15l-2.7,14.15h-11.45v12.72h-14.15v-12.72h-25.6v12.72h-14.15v-12.72h-11.45l-2.7-14.15h14.15ZM1776.15,179.61v-21.78l-2.23,4.77h-12.4l17.49-42.61h-14.31l-2.86-14.31h22.89l5.25-12.72h15.42l-5.88,12.72h41.81l-2.7,14.31h-45.47l-6.04,13.51h50.08v46.1l-2.86,14.15h-55.33l-2.86-14.15ZM1822.89,179.61v-31.8h-32.59v31.8h32.59Z"/>
    <path class="cls-2" d="M1874.56,146.86v-70.91h-3.66l-2.86-12.72h6.52v-11.45h12.72v11.45h22.73v-11.45h12.72v11.45h6.36l-2.86,12.72h-3.5v70.91h7.79l-2.86,12.88h-58.19l-2.86-12.88h7.95ZM1876.78,164.03h13.2l-9.22,29.73h-10.33l6.36-29.73ZM1910.01,91.06v-15.1h-22.73v15.1h22.73ZM1910.01,118.88v-14.94h-22.73v14.94h22.73ZM1910.01,146.86v-15.1h-22.73v15.1h22.73ZM1919.07,164.03l6.36,29.73h-10.33l-9.22-29.73h13.2ZM1935.45,112.2v-54.69h24.17l23.53-5.72v11.76l-21.62,8.11h-11.76v27.03h36.09l-2.7,13.51h-4.29v81.56h-12.88v-81.56h-16.22v.64l-9.22,80.92h-11.45l6.36-81.56Z"/>
  </g>
  <g>
    <path class="cls-2" d="M1452.53,236.87h11.42l-1.75,6.52h-20.55l8.97-33.49h20.08l-1.75,6.52h-10.95l-1.83,6.83h9.44l-1.75,6.52h-9.44l-1.9,7.09Z"/>
    <path class="cls-2" d="M1504.66,209.9l-1.75,6.52h-6.47l-7.23,26.97h-9.13l7.23-26.97h-6.42l1.75-6.52h22.01Z"/>
    <path class="cls-2" d="M1532.98,209.9h8.97l-8.97,33.49h-8.97l3.55-13.25h-6.57l-3.55,13.25h-8.97l8.97-33.49h8.97l-3.68,13.72h6.57l3.68-13.72Z"/>
    <path class="cls-2" d="M1558.46,236.87h11.42l-1.75,6.52h-20.55l8.97-33.49h20.08l-1.75,6.52h-10.95l-1.83,6.83h9.44l-1.75,6.52h-9.44l-1.9,7.09Z"/>
    <path class="cls-2" d="M1593.75,231.5l-3.19,11.89h-9.13l8.97-33.49h15.49c5.11,0,7.09,2.16,5.93,6.47l-2.32,8.66c-.88,3.3-2.93,5.34-6.12,6.1l2.87,12.26h-9.81l-2.13-11.89h-.57ZM1601.39,216.42h-3.6l-2.38,8.87h3.6c.87,0,1.41-.38,1.61-1.15l1.76-6.57c.21-.77-.13-1.15-1-1.15Z"/>
    <path class="cls-2" d="M1642.93,209.9h8.35l-8.97,33.49h-7.82l-2.75-17.58-4.71,17.58h-8.35l8.97-33.49h7.82l2.67,17.89,4.79-17.89Z"/>
    <path class="cls-2" d="M1673.39,209.9h7.72c5.11,0,7.09,2.16,5.94,6.47l-5.51,20.55c-1.16,4.31-4.29,6.47-9.4,6.47h-7.72c-5.11,0-7.09-2.16-5.93-6.47l5.51-20.55c1.16-4.31,4.29-6.47,9.4-6.47ZM1672.74,235.72l4.86-18.15c.21-.77-.13-1.15-1-1.15h-2.19c-.87,0-1.41.38-1.61,1.15l-4.86,18.15c-.21.77.13,1.15,1,1.15h2.19c.87,0,1.41-.38,1.61-1.15Z"/>
    <path class="cls-2" d="M1709.14,235.72l1.27-4.75c.21-.77-.13-1.15-1-1.15h-5.01c-2.57,0-4.24-.56-5-1.7-.76-1.13-.85-2.75-.28-4.88l1.84-6.88c1.16-4.31,4.27-6.47,9.35-6.47h7.15c5.08,0,7.04,2.16,5.88,6.47l-1.08,4.02h-9.13l.75-2.82c.2-.77-.13-1.15-1-1.15h-1.51c-.87,0-1.41.38-1.61,1.15l-1.33,4.96c-.21.76.13,1.15,1,1.15h4.9c2.57,0,4.26.54,5.07,1.62.81,1.08.93,2.66.37,4.75l-1.84,6.88c-1.16,4.31-4.27,6.47-9.35,6.47h-7.09c-5.11,0-7.09-2.16-5.93-6.47l1.08-4.02h9.13l-.75,2.82c-.21.77.13,1.15,1,1.15h1.51c.87,0,1.41-.38,1.61-1.15Z"/>
  </g>
</svg>