<?xml version="1.0" encoding="UTF-8"?>
<svg id="_图层_1" data-name="图层_1" xmlns="http://www.w3.org/2000/svg" viewBox="0 0 1024 1024">
  <defs>
    <style>
      .cls-1 {
        fill: #231815;
      }

      .cls-2 {
        fill: #00a0e9;
      }

      .cls-3 {
        fill: #1f2c5c;
      }

      .cls-4 {
        fill: #f39800;
      }
    </style>
  </defs>
  <polygon class="cls-2" points="193.84 528.84 260.27 528.84 227.05 586.38 193.84 528.84"/>
  <polygon class="cls-1" points="260.27 507.47 193.84 507.47 227.05 349.86 260.27 507.47"/>
  <rect class="cls-1" x="115.65" y="543.44" width="66.43" height="99.4" transform="translate(588.1 167.65) rotate(60)"/>
  <rect class="cls-1" x="271.99" y="543.43" width="66.43" height="99.4" transform="translate(971.48 625.39) rotate(120)"/>
  <polygon class="cls-4" points="103.89 657.45 37.46 657.45 70.68 599.91 103.89 657.45"/>
  <polygon class="cls-4" points="416.61 657.45 350.18 657.45 383.39 599.91 416.61 657.45"/>
  <polygon class="cls-3" points="123.44 545.57 175.29 514.65 193.84 425.14 123.44 545.57"/>
  <polygon class="cls-3" points="330.67 545.57 278.81 514.65 260.27 425.14 330.67 545.57"/>
  <polygon class="cls-3" points="279.75 633.66 227.11 604.04 172.21 633.66 279.75 633.66"/>
  <g>
    <path class="cls-1" d="M431.31,401.65h15.74v111.92l31.16-19.55v18.44l-46.9,29.25v-140.06ZM482.98,415.8l7.31,56.92h-14.31l-10.17-56.92h17.17ZM509.37,459.84v-58.19h15.74v58.19l24.32,83.78h-13.35l-18.76-54.85-18.92,54.85h-13.35l24.32-83.78Z"/>
    <path class="cls-1" d="M623.19,442.83h-46.42l-2.86-15.58h51.83v-25.6h15.74v25.6h51.67l-2.7,15.58h-46.42l46.42,100.79h-14.47l-42.45-86.96-42.45,86.96h-14.31l46.42-100.79ZM638.62,499.58l11.76,38.31h-13.51l-14.63-38.31h16.38Z"/>
    <path class="cls-1" d="M744.02,449.19v72.02l10.02-4.61v14.31l-24.17,12.72v-80.13h-10.02l-2.86-14.31h27.03ZM740.52,407.37l10.65,34.02h-12.08l-14.94-34.02h16.38ZM768.18,414.53v-12.88h14.15v12.88h25.6v-12.88h14.15v12.88h14.15l-2.7,14.15h-11.45v12.72h-14.15v-12.72h-25.6v12.72h-14.15v-12.72h-11.45l-2.7-14.15h14.15ZM769.62,529.47v-21.78l-2.23,4.77h-12.4l17.49-42.61h-14.31l-2.86-14.31h22.89l5.25-12.72h15.42l-5.88,12.72h41.81l-2.7,14.31h-45.47l-6.04,13.51h50.08v46.1l-2.86,14.15h-55.33l-2.86-14.15ZM816.36,529.47v-31.8h-32.59v31.8h32.59Z"/>
    <path class="cls-1" d="M868.02,496.72v-70.91h-3.66l-2.86-12.72h6.52v-11.45h12.72v11.45h22.73v-11.45h12.72v11.45h6.36l-2.86,12.72h-3.5v70.91h7.79l-2.86,12.88h-58.19l-2.86-12.88h7.95ZM870.25,513.89h13.2l-9.22,29.73h-10.33l6.36-29.73ZM903.48,440.92v-15.1h-22.73v15.1h22.73ZM903.48,468.74v-14.94h-22.73v14.94h22.73ZM903.48,496.72v-15.1h-22.73v15.1h22.73ZM912.54,513.89l6.36,29.73h-10.33l-9.22-29.73h13.2ZM928.91,462.06v-54.69h24.17l23.53-5.72v11.76l-21.62,8.11h-11.76v27.03h36.09l-2.7,13.51h-4.29v81.56h-12.88v-81.56h-16.22v.64l-9.22,80.92h-11.45l6.36-81.56Z"/>
  </g>
  <g>
    <path class="cls-1" d="M445.99,586.73h11.42l-1.75,6.52h-20.55l8.97-33.49h20.08l-1.75,6.52h-10.95l-1.83,6.83h9.44l-1.75,6.52h-9.44l-1.9,7.09Z"/>
    <path class="cls-1" d="M498.13,559.76l-1.75,6.52h-6.47l-7.23,26.97h-9.13l7.23-26.97h-6.42l1.75-6.52h22.01Z"/>
    <path class="cls-1" d="M526.45,559.76h8.97l-8.97,33.49h-8.97l3.55-13.25h-6.57l-3.55,13.25h-8.97l8.97-33.49h8.97l-3.68,13.72h6.57l3.68-13.72Z"/>
    <path class="cls-1" d="M551.93,586.73h11.42l-1.75,6.52h-20.55l8.97-33.49h20.08l-1.75,6.52h-10.95l-1.83,6.83h9.44l-1.75,6.52h-9.44l-1.9,7.09Z"/>
    <path class="cls-1" d="M587.22,581.36l-3.19,11.89h-9.13l8.97-33.49h15.49c5.11,0,7.09,2.16,5.93,6.47l-2.32,8.66c-.88,3.3-2.93,5.34-6.12,6.1l2.87,12.26h-9.81l-2.13-11.89h-.57ZM594.86,566.28h-3.6l-2.38,8.87h3.6c.87,0,1.41-.38,1.61-1.15l1.76-6.57c.21-.77-.13-1.15-1-1.15Z"/>
    <path class="cls-1" d="M636.4,559.76h8.35l-8.97,33.49h-7.82l-2.75-17.58-4.71,17.58h-8.35l8.97-33.49h7.82l2.67,17.89,4.79-17.89Z"/>
    <path class="cls-1" d="M666.86,559.76h7.72c5.11,0,7.09,2.16,5.94,6.47l-5.51,20.55c-1.16,4.31-4.29,6.47-9.4,6.47h-7.72c-5.11,0-7.09-2.16-5.93-6.47l5.51-20.55c1.16-4.31,4.29-6.47,9.4-6.47ZM666.2,585.58l4.86-18.15c.21-.77-.13-1.15-1-1.15h-2.19c-.87,0-1.41.38-1.61,1.15l-4.86,18.15c-.21.77.13,1.15,1,1.15h2.19c.87,0,1.41-.38,1.61-1.15Z"/>
    <path class="cls-1" d="M702.61,585.58l1.27-4.75c.21-.77-.13-1.15-1-1.15h-5.01c-2.57,0-4.24-.56-5-1.7-.76-1.13-.85-2.75-.28-4.88l1.84-6.88c1.16-4.31,4.27-6.47,9.35-6.47h7.15c5.08,0,7.04,2.16,5.88,6.47l-1.08,4.02h-9.13l.75-2.82c.2-.77-.13-1.15-1-1.15h-1.51c-.87,0-1.41.38-1.61,1.15l-1.33,4.96c-.21.76.13,1.15,1,1.15h4.9c2.57,0,4.26.54,5.07,1.62.81,1.08.93,2.66.37,4.75l-1.84,6.88c-1.16,4.31-4.27,6.47-9.35,6.47h-7.09c-5.11,0-7.09-2.16-5.93-6.47l1.08-4.02h9.13l-.75,2.82c-.21.77.13,1.15,1,1.15h1.51c.87,0,1.41-.38,1.61-1.15Z"/>
  </g>
</svg>